<svg xmlns="http://www.w3.org/2000/svg" viewBox="0 0 512 512">
  <rect width="512" height="512" fill="#212326" rx="64" ry="64" />
  <path
    fill="#191a1c"
    d="M448 8c30.88 0 56 25.12 56 56v384c0 30.88-25.12 56-56 56H64c-30.88 0-56-25.12-56-56V64C8 33.12 33.12 8 64 8h384m0-8H64C28.65 0 0 28.65 0 64v384c0 35.35 28.65 64 64 64h384c35.35 0 64-28.65 64-64V64c0-35.35-28.65-64-64-64Z" />
  <path
    fill="#fff"
    d="M306.35 128.62s-3.53 1.01-9.34 2.78c-1.01-3.28-2.52-7.07-4.54-11.11-6.56-12.62-16.41-19.44-28.02-19.44-.76 0-1.51 0-2.52.25-.25-.5-.76-.76-1.01-1.26-5.05-5.55-11.61-8.08-19.44-7.82-15.14.5-30.29 11.36-42.4 30.79-8.58 13.63-15.14 30.79-16.91 44.17-17.42 5.3-29.53 9.09-29.78 9.34-8.83 2.78-9.09 3.03-10.1 11.36-1.51 6.31-24.48 184.26-24.48 184.26l190.82 33.07v-276.9c-1.01.25-1.77.25-2.27.5Zm-44.17 13.63c-10.1 3.03-21.2 6.56-32.06 9.84 3.03-11.86 9.09-23.73 16.15-31.55 2.78-2.78 6.56-6.06 10.85-8.08 4.29 9.09 5.3 21.45 5.05 29.78Zm-20.44-40.14c3.53 0 6.56.76 9.09 2.27-4.04 2.02-8.08 5.3-11.86 9.09-9.59 10.35-16.91 26.5-19.94 41.9-9.09 2.78-18.17 5.55-26.5 8.08 5.3-23.98 25.75-60.58 49.22-61.33Zm-29.53 138.83c1.01 16.15 43.67 19.69 46.19 57.8 1.77 30.04-15.9 50.48-41.39 52-30.79 2.02-47.7-16.15-47.7-16.15l6.56-27.76s16.91 12.87 30.54 11.86c8.83-.5 12.12-7.82 11.86-12.87-1.26-21.2-36.09-19.94-38.37-54.77-2.02-29.03 17.16-58.56 59.57-61.33 16.41-1.01 24.74 3.03 24.74 3.03l-9.59 36.35s-10.85-5.05-23.73-4.04c-18.68 1.26-18.93 13.13-18.68 15.9Zm60.07-101.72c0-7.57-1.01-18.43-4.54-27.51 11.61 2.27 17.16 15.14 19.69 22.97-4.54 1.26-9.59 2.78-15.14 4.54Zm42.66 264.77 79.26-19.69s-34.07-230.45-34.33-231.96c-.25-1.51-1.51-2.52-2.78-2.52s-23.47-.5-23.47-.5-13.63-13.13-18.68-18.17V404Z" />
</svg>
